<?xml version="1.0" encoding="utf-8"?>
<!-- Generator: Adobe Illustrator 26.0.3, SVG Export Plug-In . SVG Version: 6.00 Build 0)  -->
<svg version="1.1" id="Layer_1" xmlns="http://www.w3.org/2000/svg" xmlns:xlink="http://www.w3.org/1999/xlink" x="0px" y="0px"
	 viewBox="0 0 200 200" style="enable-background:new 0 0 200 200;" xml:space="preserve">
<style type="text/css">
	.st0{fill:#FFFFFF;}
	.st1{fill:none;stroke:#FFFFFF;stroke-width:6;stroke-linecap:round;stroke-linejoin:round;stroke-miterlimit:10;}
</style>
<g>
	<path class="st0" d="M27.9,200c-5.4,0-9.4-0.8-12-2.5S12,194,12,191.9c0-1.4,0.2-3,0.7-4.8s1.2-3.5,2.3-5c1.3,1.1,2.9,2.1,5,2.8
		c2,0.8,4.1,1.1,6.3,1.1c3.3,0,5.6-0.8,6.9-2.5c1.3-1.7,1.9-3.9,1.9-6.8c0-2.1-0.4-4.1-1.1-5.9c-0.8-1.9-2.2-4.2-4.3-6.9l-11-14.7
		c-2.7-3.7-4.6-6.9-5.4-9.7c-0.9-2.7-1.3-5.4-1.3-8.1c0-5.5,1.8-9.9,5.4-13.4c3.6-3.4,9-5.1,16.1-5.1c6.1,0,10.4,0.6,12.8,1.8
		c2.4,1.2,3.6,2.9,3.6,5c0,1.1-0.2,2.4-0.7,3.7c-0.5,1.3-1.3,2.6-2.4,3.9c-0.6-0.5-2-1-4-1.6s-4.2-0.8-6.5-0.8c-3,0-5.3,0.5-7,1.5
		s-2.5,2.6-2.5,4.7c0,1.9,0.3,3.6,1,5.1c0.7,1.6,1.8,3.4,3.3,5.6l11.6,14.9c2.9,3.7,4.8,7.1,5.8,10s1.5,6.2,1.5,9.7
		c0,4-0.6,7.8-1.9,11.4c-1.3,3.6-3.4,6.5-6.6,8.8C38.3,198.9,33.7,200,27.9,200z"/>
	<path class="st0" d="M59.3,199c-0.9,0-2.1,0-3.7-0.1c-1.6-0.1-3.2-0.2-4.8-0.4L71,116.4c0.3-1.7,2.1-2.5,5.4-2.5
		c1.1,0,2.3,0,3.4,0.1c1.2,0.1,2.2,0.2,3,0.4l20.2,82.2c0.2,0.8-0.1,1.4-0.8,1.8c-0.7,0.4-2.5,0.6-5.2,0.6c-0.9,0-2,0-3.3-0.1
		c-1.3,0-2.8-0.1-4.6-0.2L80.3,156c-0.4-2.2-0.8-4.5-1.2-7.1c-0.4-2.5-0.8-5.2-1.1-7.9c-0.3-2.7-0.6-5.4-0.8-7.9
		c-0.2,2.5-0.5,5.1-0.9,7.9c-0.4,2.7-0.7,5.4-1.1,7.9s-0.8,4.9-1.3,7.1l-8.3,40.4c-0.2,0.8-0.5,1.4-1.1,1.9
		C63.7,198.8,62,199,59.3,199z M64.5,179.6v-12.2h27.3v12.2H64.5z"/>
	<path class="st0" d="M119.6,199.5c-2.3,0-4-0.7-5.2-2.1c-1.2-1.4-2-3.1-2.4-5.1c-0.7-3.2-1.6-7.3-2.5-12.1
		c-0.9-4.9-1.9-10.1-3-15.7c-1-5.6-2.1-11.2-3.1-16.7s-1.9-10.6-2.7-15.1c-0.8-4.6-1.7-9.6-2.7-15.1c-0.2-1.4-0.2-2.3,0-2.8
		s1.2-0.7,3-0.7h11.4l6,39.4c0.6,4,1.2,8.1,1.8,12.3c0.5,4.3,1,8.3,1.5,12.1s0.9,7,1.2,9.7c0.2-2.7,0.6-5.9,1-9.7s0.9-7.8,1.4-12.1
		s1.1-8.4,1.6-12.3l5.2-35.8c0.2-1.3,0.4-2.2,0.8-2.8c0.4-0.6,1.2-0.8,2.4-0.8h12l-16,84.6c-2,0.2-3.8,0.4-5.5,0.5
		C124.3,199.5,122.2,199.5,119.6,199.5z"/>
	<path class="st0" d="M151.7,198.8v-82.2c0.4-1.6,1.2-2.4,2.4-2.4h8.7c1.2,0,2,0.8,2.4,2.4v79.8c0,0.8-0.2,1.4-0.6,1.7
		c-0.4,0.3-1.6,0.5-3.4,0.6C159.3,198.8,156.1,198.8,151.7,198.8z M155.6,166.1c-1.4,0-2.2-0.2-2.4-0.7s-0.4-1.4-0.4-2.7v-46.2
		c0.2-1.6,0.9-2.4,2.2-2.4h10.4c5.1,0,9.4,0.7,12.9,2.1s6.2,3.9,8,7.5s2.7,8.7,2.7,15.3c0,5.5-0.7,10-2,13.5s-3.1,6.2-5.3,8.2
		s-4.7,3.4-7.4,4.2s-5.5,1.2-8.3,1.2H155.6z M165.2,153.7h2.4c1.3,0,2.4-0.4,3.3-1.2c0.9-0.8,1.6-2.3,2.1-4.5s0.8-5.4,0.8-9.6
		c0-2.9-0.2-5.3-0.5-7.1c-0.4-1.9-0.9-3.2-1.7-4s-1.8-1.3-3.1-1.3h-3.3V153.7z M183.9,199.2c-1,0-2.3,0-3.6-0.1
		c-1.4-0.1-2.8-0.2-4.4-0.2c-0.2-7.1-0.8-13-1.8-17.6s-2.2-8.3-3.6-10.9c-1.3-2.6-3-5-5-7.2c-0.5-1.1-0.2-2,0.8-2.5l7.6-4.4
		c1.3,0,2.1,0.4,2.5,1.3c2.7,2.7,5,5.5,6.8,8.5s3.5,7,5,11.9s2.4,11,2.6,18.1c0,1.1-0.3,1.9-1,2.4
		C189.2,198.9,187.2,199.2,183.9,199.2z"/>
</g>
<circle class="st0" cx="99.1" cy="73.1" r="25.2"/>
<line class="st1" x1="99.1" y1="3" x2="99.1" y2="34.4"/>
<line class="st1" x1="49.5" y1="23.5" x2="71.7" y2="45.7"/>
<line class="st1" x1="29" y1="73.1" x2="60.4" y2="73.1"/>
<line class="st1" x1="169.1" y1="73.1" x2="137.7" y2="73.1"/>
<line class="st1" x1="148.6" y1="23.5" x2="126.4" y2="45.7"/>
</svg>
